<svg xmlns="http://www.w3.org/2000/svg" width="212" height="40" fill="none" viewBox="0 0 212 40">
    <g clip-path="url(#clip0)">
        <path fill="#F2994A" d="M88.256 28.977h4.418l1.4-1.4c.27-.27.702-.27.972 0l1.438 1.438c.27.27.27.703 0 .973l-1.438 1.438c-.27.27-.702.27-.972 0l-1.438-1.438c-.005-.005-.005-.005-.005-.01h-4.375c-.275 0-.503-.222-.503-.502.005-.275.228-.498.503-.498zM80.033 11.193h4.418l1.4-1.4c.27-.27.702-.27.972 0l1.438 1.438c.27.27.27.703 0 .973l-1.438 1.438c-.27.27-.702.27-.972 0l-1.438-1.438c-.005-.005-.005-.005-.005-.01h-4.37c-.275 0-.503-.223-.503-.502-.005-.27.223-.499.498-.499zM75.782 19.056h4.417l1.4-1.4c.27-.27.702-.27.973 0l1.438 1.438c.27.27.27.702 0 .972l-1.438 1.438c-.27.27-.703.27-.973 0l-1.438-1.438c-.004-.004-.004-.004-.004-.01h-4.37c-.276 0-.504-.222-.504-.502 0-.275.224-.498.499-.498z"/>
        <path fill="#18A0FB" d="M78.586 27.227l2.012 1.936h3.037c.118-.622.664-1.097 1.323-1.097.746 0 1.348.603 1.348 1.348 0 .745-.602 1.348-1.347 1.348-.608 0-1.12-.404-1.291-.954h-3.326l-2.012-1.936h-7.241v-.645h7.497zM60.645 18.918h10.52c.123-.617.669-1.077 1.319-1.077.745 0 1.348.603 1.348 1.348 0 .745-.603 1.347-1.348 1.347-.617 0-1.134-.413-1.295-.973H60.645v-.645zM63.018 15.132h10.51c.109-.636.66-1.115 1.328-1.115.746 0 1.348.602 1.348 1.347s-.602 1.348-1.347 1.348c-.603 0-1.11-.394-1.282-.935H63.023v-.645h-.005zM65.39 11.203h10.553c.176-.541.683-.935 1.281-.935.745 0 1.348.603 1.348 1.348 0 .745-.603 1.347-1.348 1.347-.664 0-1.215-.484-1.328-1.115h-10.51v-.645h.004zM70.135 3.208h3.379c.133-.608.669-1.059 1.314-1.059.745 0 1.348.603 1.348 1.348 0 .745-.603 1.348-1.348 1.348-.622 0-1.144-.423-1.3-.992H70.13v-.645h.005zM76.54 8.579l6.411-6.32 6.942-.124.01.64-6.681.124-6.415 6.325h-9.519V8.58h9.253z"/>
        <path fill="#18A0FB" d="M91.246 3.8c.744 0 1.347-.603 1.347-1.347s-.603-1.347-1.347-1.347c-.745 0-1.348.603-1.348 1.347s.603 1.348 1.348 1.348zM71.027 32.887c.745 0 1.348.603 1.348 1.348 0 .745-.603 1.348-1.348 1.348-.636 0-1.172-.442-1.31-1.04h-3.373v-.645h3.383c.142-.579.67-1.01 1.3-1.01z"/>
        <path fill="#18A0FB" d="M72.489 30.354l3.24 3.402 8.337-.005c.143-.588.674-1.025 1.31-1.025.745 0 1.348.603 1.348 1.348 0 .745-.603 1.347-1.348 1.347-.631 0-1.163-.436-1.31-1.025l-8.616.005-3.241-3.402h-5.874v-.645h6.154z"/>
        <path fill="#fff" d="M101.001.024h4.385c.773 0 1.466.07 2.087.209.622.137 1.153.365 1.595.683.441.318.783.721 1.025 1.214.242.494.36 1.087.36 1.785 0 .745-.137 1.37-.417 1.879-.28.507-.655.915-1.13 1.224-.474.308-1.029.536-1.66.674-.631.137-1.305.208-2.012.208h-1.841v5.561h-2.392V.024zm4.062 5.865c.394 0 .764-.029 1.12-.086.356-.057.669-.156.949-.304.28-.147.498-.346.664-.597.166-.252.247-.584.247-.987 0-.394-.081-.712-.247-.959-.166-.247-.384-.441-.655-.579-.27-.137-.583-.232-.93-.275-.346-.043-.707-.066-1.072-.066h-1.746v3.853h1.67zM117.058 12.304h-.057c-.228.403-.593.735-1.101.996-.507.261-1.081.39-1.727.39-.365 0-.749-.048-1.148-.143-.399-.095-.764-.252-1.101-.475-.337-.223-.612-.512-.835-.873-.223-.36-.332-.806-.332-1.338 0-.683.194-1.229.579-1.632.384-.403.882-.716 1.49-.93.607-.214 1.281-.356 2.021-.427.74-.071 1.466-.104 2.173-.104V7.54c0-.57-.204-.992-.617-1.262-.412-.27-.901-.408-1.471-.408-.479 0-.944.1-1.385.303-.441.204-.812.451-1.101.74l-1.177-1.385c.517-.48 1.115-.84 1.794-1.082.678-.242 1.362-.36 2.059-.36.812 0 1.476.113 2.003.341.526.228.939.527 1.243.892.303.365.517.778.636 1.234.118.455.18.91.18 1.366v5.542h-2.126v-1.157zm-.038-3h-.512c-.366 0-.755.015-1.158.048-.403.034-.778.1-1.12.21-.341.108-.626.26-.854.455-.228.194-.342.465-.342.806 0 .214.048.394.143.541.095.147.218.261.37.351.152.09.323.152.512.19.19.038.38.057.57.057.783 0 1.381-.209 1.784-.626.403-.418.607-.987.607-1.708v-.323zM120.474 4.351h2.525l2.543 6.624h.038l2.259-6.624h2.372l-4.308 11.065c-.166.418-.342.788-.532 1.11-.19.323-.417.594-.683.817-.266.223-.579.389-.939.503-.361.114-.793.17-1.301.17-.189 0-.384-.009-.578-.028-.195-.019-.394-.052-.598-.104l.189-1.974c.152.052.299.085.446.104.148.02.28.029.409.029.242 0 .441-.029.607-.086.166-.057.304-.147.417-.265.114-.119.214-.27.304-.446s.185-.385.285-.627l.455-1.158-3.91-9.11zM110.7 25.158c-.356-.48-.816-.83-1.386-1.054-.569-.223-1.124-.332-1.67-.332-.697 0-1.328.128-1.898.38-.569.251-1.058.602-1.471 1.044-.413.441-.726.963-.949 1.556-.223.593-.332 1.239-.332 1.936 0 .736.109 1.405.323 2.012.213.607.522 1.13.92 1.566.399.436.878.773 1.433 1.015.555.242 1.182.36 1.879.36.721 0 1.362-.142 1.917-.426.555-.285 1.006-.66 1.348-1.13l1.917 1.348c-.593.745-1.324 1.324-2.183 1.737-.859.412-1.865.616-3.018.616-1.048 0-2.016-.175-2.894-.522-.878-.346-1.637-.835-2.268-1.46-.631-.627-1.125-1.372-1.481-2.24-.356-.869-.531-1.827-.531-2.876 0-1.077.185-2.045.56-2.913.375-.869.887-1.604 1.537-2.211.65-.608 1.419-1.078 2.306-1.405.887-.328 1.846-.493 2.885-.493.432 0 .878.042 1.348.123.469.08.915.209 1.347.38.432.17.835.384 1.215.635.38.252.702.555.968.911l-1.822 1.443zM113.338 30.852c0-.721.128-1.376.389-1.965.261-.588.612-1.091 1.053-1.509.442-.417.968-.74 1.576-.968.607-.227 1.252-.341 1.936-.341.683 0 1.328.114 1.936.341.607.228 1.134.55 1.575.968.441.418.792.921 1.053 1.51.261.588.389 1.242.389 1.964 0 .721-.128 1.38-.389 1.974-.261.593-.612 1.105-1.053 1.527-.441.423-.968.755-1.575.997-.608.242-1.253.36-1.936.36-.684 0-1.329-.118-1.936-.36-.608-.242-1.134-.574-1.576-.997-.441-.422-.792-.934-1.053-1.527-.256-.598-.389-1.253-.389-1.974zm2.316 0c0 .356.052.707.161 1.063.109.355.27.669.484.949.213.28.489.507.816.683.327.175.721.266 1.177.266.455 0 .849-.09 1.177-.266.327-.176.602-.403.816-.683.213-.28.374-.593.484-.95.109-.355.161-.706.161-1.062 0-.356-.052-.707-.161-1.054-.11-.346-.271-.66-.484-.94-.214-.28-.489-.502-.816-.673-.328-.17-.722-.256-1.177-.256-.456 0-.85.085-1.177.256-.327.17-.603.394-.816.674-.214.28-.375.593-.484.94-.109.346-.161.697-.161 1.053zM125.447 26.335h2.164v1.461h.038c.204-.456.555-.859 1.053-1.205.498-.347 1.092-.522 1.775-.522.593 0 1.105.104 1.528.313.422.209.773.484 1.044.826.27.341.469.735.597 1.176.129.442.19.897.19 1.367v5.694h-2.277v-5.049c0-.265-.019-.545-.057-.835-.038-.29-.119-.555-.247-.788-.128-.232-.299-.427-.522-.578-.223-.152-.517-.228-.883-.228-.365 0-.683.071-.949.218-.265.147-.484.332-.654.56-.171.228-.299.489-.389.788-.091.299-.133.598-.133.901v5.01h-2.278v-9.11zM136.854 28.157h-1.727v-1.823h1.727v-1.347c0-.546.062-1.068.18-1.566.119-.498.323-.94.608-1.319.284-.38.659-.678 1.129-.901.47-.224 1.058-.333 1.765-.333.252 0 .465.01.636.029.171.019.346.052.522.104l-.152 1.936c-.128-.038-.261-.071-.408-.095-.147-.023-.299-.038-.465-.038-.327 0-.593.062-.797.19-.204.128-.356.29-.465.494-.109.204-.18.422-.218.664-.038.242-.057.474-.057.702v1.48h2.106v1.823h-2.106v7.288h-2.278v-7.288zm5.732-4.916c0-.366.138-.688.408-.959.271-.27.617-.408 1.034-.408.418 0 .769.128 1.054.39.285.26.427.583.427.977s-.142.716-.427.977c-.285.261-.636.39-1.054.39-.417 0-.763-.138-1.034-.409-.27-.275-.408-.593-.408-.958zm.323 3.093h2.277v9.11h-2.277v-9.11zM157.011 26.334v8.295c0 .82-.1 1.566-.304 2.23-.204.664-.517 1.229-.94 1.689-.422.46-.958.82-1.603 1.072-.646.252-1.41.38-2.297.38-.365 0-.754-.033-1.167-.095-.413-.062-.816-.157-1.215-.285-.398-.128-.783-.284-1.148-.474-.366-.19-.698-.403-.987-.645l1.309-1.765c.442.417.945.735 1.5.958.555.223 1.12.332 1.689.332.546 0 1.001-.08 1.376-.237.375-.157.669-.38.892-.655.223-.28.38-.612.475-.992.095-.38.142-.802.142-1.257v-.664h-.038c-.327.446-.75.787-1.262 1.025-.513.237-1.087.355-1.718.355-.683 0-1.305-.128-1.86-.38-.555-.25-1.029-.592-1.414-1.024-.384-.432-.688-.935-.901-1.509-.214-.574-.323-1.186-.323-1.832 0-.66.104-1.276.313-1.86.209-.583.508-1.086.892-1.518.385-.432.854-.773 1.405-1.025.55-.251 1.167-.38 1.85-.38.646 0 1.248.133 1.803.4.556.265 1.002.678 1.329 1.233h.038v-1.372h2.164zm-4.859 1.595c-.418 0-.788.076-1.111.228-.322.151-.593.355-.816.616-.223.257-.393.565-.512.916-.119.351-.18.73-.18 1.134 0 .366.061.721.18 1.058.119.342.289.646.512.916.223.27.494.489.816.655.323.166.688.247 1.092.247.417 0 .792-.081 1.129-.238.337-.156.622-.37.854-.635.233-.266.413-.57.541-.916.128-.346.19-.712.19-1.087 0-.389-.062-.764-.19-1.115-.128-.35-.308-.664-.541-.925-.232-.266-.517-.475-.844-.626-.328-.152-.703-.228-1.12-.228zM168.057 35.445h-2.164v-1.462h-.038c-.204.456-.555.86-1.053 1.206-.498.346-1.091.522-1.775.522-.593 0-1.105-.105-1.528-.314-.422-.208-.773-.484-1.043-.825-.271-.342-.47-.736-.598-1.177-.128-.441-.19-.897-.19-1.367v-5.694h2.277v5.05c0 .265.019.545.057.834.038.29.119.555.247.788.128.232.299.427.522.579.223.152.517.228.883.228.355 0 .669-.072.939-.219.271-.147.494-.332.664-.56.171-.227.299-.488.389-.787.091-.3.133-.598.133-.902v-5.01h2.278v9.11zM170.79 26.335h2.183v1.518h.038c.251-.532.607-.963 1.063-1.29.455-.328.987-.494 1.594-.494.09 0 .185.005.285.01.099.004.189.023.265.047v2.088c-.152-.038-.28-.062-.389-.076-.109-.015-.213-.02-.313-.02-.517 0-.935.096-1.253.285-.318.19-.564.418-.74.684-.175.265-.299.536-.36.816-.062.28-.095.498-.095.664v4.878h-2.278v-9.11zM183.108 34.287h-.057c-.228.403-.593.736-1.101.997-.508.26-1.082.389-1.727.389-.365 0-.75-.048-1.148-.143-.399-.095-.764-.251-1.101-.474-.337-.223-.612-.513-.835-.873-.223-.36-.332-.807-.332-1.338 0-.684.194-1.23.579-1.633.384-.403.882-.716 1.489-.93.608-.213 1.282-.355 2.022-.427.74-.07 1.466-.104 2.173-.104v-.228c0-.57-.204-.991-.617-1.262-.413-.27-.901-.408-1.471-.408-.479 0-.944.1-1.385.304-.442.204-.812.45-1.101.74l-1.177-1.386c.517-.479 1.115-.84 1.794-1.081.678-.242 1.361-.361 2.059-.361.811 0 1.476.114 2.002.341.527.228.94.527 1.244.892.303.366.517.779.635 1.234.119.456.181.911.181 1.367v5.542h-2.126v-1.158zm-.038-2.999h-.512c-.366 0-.755.014-1.158.048-.404.033-.778.1-1.12.209-.342.109-.626.26-.854.455-.228.195-.342.465-.342.807 0 .213.048.393.143.54.094.148.218.262.37.352.152.09.322.152.512.19.19.037.38.056.57.056.782 0 1.38-.208 1.784-.626.403-.417.607-.987.607-1.708v-.323zM186.391 28.157v-1.823h1.595v-2.638h2.239v2.638h2.278v1.823h-2.278v4.232c0 .403.071.74.219 1.006.147.266.469.399.977.399.152 0 .318-.015.493-.048.176-.033.337-.08.475-.142l.076 1.784c-.204.076-.441.138-.721.18-.28.043-.546.067-.797.067-.608 0-1.101-.086-1.481-.257-.38-.17-.678-.403-.901-.702-.223-.299-.375-.64-.456-1.025-.081-.384-.123-.802-.123-1.243v-4.251h-1.595zM193.623 30.852c0-.721.128-1.376.389-1.965.261-.588.612-1.091 1.053-1.509.441-.417.968-.74 1.575-.968.608-.227 1.253-.341 1.936-.341.684 0 1.329.114 1.936.341.608.228 1.134.55 1.576.968.441.418.792.921 1.053 1.51.261.588.389 1.242.389 1.964 0 .721-.128 1.38-.389 1.974-.261.593-.612 1.105-1.053 1.527-.442.423-.968.755-1.576.997-.607.242-1.252.36-1.936.36-.683 0-1.328-.118-1.936-.36-.607-.242-1.134-.574-1.575-.997-.441-.422-.792-.934-1.053-1.527-.261-.598-.389-1.253-.389-1.974zm2.315 0c0 .356.052.707.162 1.063.109.355.27.669.484.949.213.28.488.507.816.683.327.175.721.266 1.176.266.456 0 .85-.09 1.177-.266.328-.176.603-.403.816-.683.214-.28.375-.593.484-.95.109-.355.162-.706.162-1.062 0-.356-.053-.707-.162-1.054-.109-.346-.27-.66-.484-.94-.213-.28-.488-.502-.816-.673-.327-.17-.721-.256-1.177-.256-.455 0-.849.085-1.176.256-.328.17-.603.394-.816.674-.214.28-.375.593-.484.94-.11.346-.162.697-.162 1.053zM205.732 26.335h2.183v1.518h.038c.251-.532.607-.963 1.062-1.29.456-.328.987-.494 1.595-.494.09 0 .185.005.284.01.1.004.19.023.266.047v2.088c-.152-.038-.28-.062-.389-.076-.109-.015-.213-.02-.313-.02-.517 0-.935.096-1.253.285-.318.19-.564.418-.74.684-.176.265-.299.536-.361.816-.061.28-.094.498-.094.664v4.878h-2.278v-9.11z"/>
        <path fill="url(#paint0_linear)" d="M26.515 10.576l-6.036 10.496-8.337 14.487H.072l14.372-24.982L20.479.084l6.036 10.491z"/>
        <path fill="#18A0FB" d="M40.883 35.559H28.81L20.48 21.072l6.036-10.495 14.368 24.982z"/>
        <path fill="#18A0FB" d="M40.873 35.559l5.623-9.59 9.532-16.26L61.684.065 72.735.12 57.552 26.02l15.743.076-5.622 9.59-15.74-.076-11.06-.052z"/>
        <path fill="url(#paint1_linear)" d="M72.75.128l-5.623 9.59-9.533 16.26-5.656 9.642-11.05-.052L56.07 9.665 40.327 9.59 45.95 0l15.74.076 11.06.052z"/>
    </g>
    <defs>
        <linearGradient id="paint0_linear" x1="13.908" x2="13.6" y1="36.439" y2="3.2" gradientUnits="userSpaceOnUse">
            <stop stop-color="#EE8E3A"/>
            <stop offset="1" stop-color="#FDB06B"/>
        </linearGradient>
        <linearGradient id="paint1_linear" x1="57.292" x2="57.039" y1="36.504" y2="3.127" gradientUnits="userSpaceOnUse">
            <stop stop-color="#EE8E3A"/>
            <stop offset="1" stop-color="#FDB06B"/>
        </linearGradient>
        <clipPath id="clip0">
            <path fill="#fff" d="M0 0H211.16V40H0z"/>
        </clipPath>
    </defs>
</svg>
