<svg width="322" height="54" viewBox="0 0 322 54" fill="none" xmlns="http://www.w3.org/2000/svg">
<path d="M132.384 43.4664H139.011L141.11 41.3668C141.516 40.9611 142.164 40.9611 142.569 41.3668L144.726 43.5234C145.132 43.929 145.132 44.5767 144.726 44.9824L142.569 47.139C142.164 47.5447 141.516 47.5447 141.11 47.139L138.954 44.9824C138.947 44.9753 138.947 44.9753 138.947 44.9682H132.384C131.972 44.9682 131.63 44.6337 131.63 44.2137C131.637 43.8009 131.972 43.4664 132.384 43.4664Z" fill="#F2994A"/>
<path d="M120.05 16.7897H126.677L128.776 14.69C129.182 14.2843 129.83 14.2843 130.235 14.69L132.392 16.8466C132.798 17.2523 132.798 17.9 132.392 18.3057L130.235 20.4623C129.83 20.8679 129.182 20.8679 128.776 20.4623L126.62 18.3057C126.612 18.2986 126.612 18.2986 126.612 18.2914H120.057C119.644 18.2914 119.303 17.9569 119.303 17.537C119.296 17.1313 119.637 16.7897 120.05 16.7897Z" fill="#F2994A"/>
<path d="M113.672 28.5836H120.298L122.398 26.484C122.804 26.0783 123.451 26.0783 123.857 26.484L126.014 28.6405C126.419 29.0462 126.419 29.6939 126.014 30.0996L123.857 32.2562C123.451 32.6619 122.804 32.6619 122.398 32.2562L120.242 30.0996C120.234 30.0925 120.234 30.0925 120.234 30.0854H113.679C113.266 30.0854 112.925 29.7509 112.925 29.3309C112.925 28.9181 113.259 28.5836 113.672 28.5836Z" fill="#F2994A"/>
<path d="M117.878 40.8398L120.896 43.7438H125.451C125.629 42.8114 126.448 42.0996 127.437 42.0996C128.555 42.0996 129.458 43.0035 129.458 44.121C129.458 45.2384 128.555 46.1423 127.437 46.1423C126.526 46.1423 125.757 45.5374 125.501 44.7117H120.512L117.494 41.8078H106.633V40.8398H117.878Z" fill="#18A0FB"/>
<path d="M90.9678 28.3774H106.747C106.932 27.4521 107.751 26.7617 108.726 26.7617C109.843 26.7617 110.747 27.6656 110.747 28.7831C110.747 29.9005 109.843 30.8044 108.726 30.8044C107.801 30.8044 107.025 30.1852 106.783 29.3453H90.9678V28.3774Z" fill="#18A0FB"/>
<path d="M94.5264 22.697H110.291C110.455 21.7433 111.281 21.0244 112.284 21.0244C113.402 21.0244 114.306 21.9283 114.306 23.0458C114.306 24.1632 113.402 25.0671 112.284 25.0671C111.38 25.0671 110.619 24.4764 110.363 23.665H94.5335V22.697H94.5264Z" fill="#18A0FB"/>
<path d="M98.0852 16.8045H113.914C114.178 15.9931 114.939 15.4023 115.836 15.4023C116.954 15.4023 117.857 16.3063 117.857 17.4237C117.857 18.5411 116.954 19.445 115.836 19.445C114.84 19.445 114.014 18.7191 113.843 17.7724H98.0781V16.8045H98.0852Z" fill="#18A0FB"/>
<path d="M105.202 4.81082H110.27C110.469 3.89979 111.274 3.22363 112.242 3.22363C113.359 3.22363 114.263 4.12755 114.263 5.24498C114.263 6.36242 113.359 7.26634 112.242 7.26634C111.309 7.26634 110.526 6.63288 110.291 5.77879H105.195V4.81082H105.202Z" fill="#18A0FB"/>
<path d="M114.812 12.8686L124.427 3.38819L134.84 3.20312L134.854 4.16399L124.833 4.34904L115.21 13.8366H100.933V12.8686H114.812Z" fill="#18A0FB"/>
<path d="M136.869 5.70091C137.985 5.70091 138.89 4.79592 138.89 3.67956C138.89 2.56319 137.985 1.6582 136.869 1.6582C135.753 1.6582 134.848 2.56319 134.848 3.67956C134.848 4.79592 135.753 5.70091 136.869 5.70091Z" fill="#18A0FB"/>
<path d="M106.542 49.3311C107.659 49.3311 108.563 50.235 108.563 51.3524C108.563 52.4699 107.659 53.3738 106.542 53.3738C105.588 53.3738 104.783 52.7118 104.577 51.815H99.5166V50.8471H104.591C104.805 49.9787 105.595 49.3311 106.542 49.3311Z" fill="#18A0FB"/>
<path d="M108.733 45.5303L113.594 50.6335L126.1 50.6264C126.313 49.7438 127.11 49.089 128.064 49.089C129.182 49.089 130.086 49.9929 130.086 51.1103C130.086 52.2278 129.182 53.1317 128.064 53.1317C127.118 53.1317 126.32 52.4769 126.1 51.5943L113.175 51.6014L108.313 46.4982H99.502V45.5303H108.733Z" fill="#18A0FB"/>
<path d="M151.502 0.0351562H158.078C159.239 0.0351562 160.278 0.141918 161.21 0.348323C162.143 0.554729 162.94 0.896366 163.602 1.37323C164.264 1.8501 164.776 2.45508 165.139 3.1953C165.502 3.93551 165.68 4.82519 165.68 5.87145C165.68 6.98889 165.473 7.92839 165.054 8.68996C164.634 9.45153 164.071 10.0636 163.36 10.5263C162.648 10.9889 161.815 11.3305 160.869 11.5369C159.922 11.7433 158.911 11.8501 157.851 11.8501H155.089V20.1917H151.502V0.0351562ZM157.594 8.83231C158.185 8.83231 158.74 8.7896 159.274 8.70419C159.808 8.61878 160.278 8.46932 160.698 8.24868C161.118 8.02804 161.445 7.72911 161.694 7.35188C161.943 6.97466 162.064 6.47644 162.064 5.87145C162.064 5.28071 161.943 4.80384 161.694 4.43373C161.445 4.06363 161.118 3.77181 160.712 3.56541C160.306 3.359 159.836 3.21665 159.317 3.15259C158.797 3.08854 158.256 3.05295 157.708 3.05295H155.089V8.83231H157.594Z" fill="#F2994A"/>
<path d="M175.588 18.4553H175.502C175.161 19.0603 174.613 19.5585 173.851 19.95C173.089 20.3415 172.228 20.5336 171.26 20.5336C170.712 20.5336 170.136 20.4624 169.538 20.3201C168.94 20.1778 168.392 19.9429 167.887 19.6084C167.381 19.2738 166.968 18.8397 166.634 18.2987C166.299 17.7578 166.136 17.0888 166.136 16.2916C166.136 15.2667 166.428 14.4482 167.004 13.8432C167.581 13.2383 168.328 12.7685 169.239 12.4482C170.15 12.1279 171.161 11.9144 172.271 11.8076C173.381 11.7009 174.47 11.6511 175.531 11.6511V11.3094C175.531 10.4553 175.225 9.82188 174.605 9.41619C173.986 9.01049 173.253 8.80409 172.399 8.80409C171.68 8.80409 170.983 8.95355 170.321 9.2596C169.659 9.56565 169.104 9.93576 168.67 10.3699L166.904 8.29163C167.68 7.57277 168.577 7.03184 169.595 6.66886C170.613 6.30587 171.638 6.12793 172.684 6.12793C173.901 6.12793 174.897 6.29875 175.687 6.64039C176.477 6.98202 177.097 7.43042 177.552 7.97846C178.008 8.52651 178.328 9.14572 178.506 9.829C178.684 10.5123 178.776 11.1955 178.776 11.8788V20.192H175.588V18.4553ZM175.531 13.9571H174.762C174.214 13.9571 173.63 13.9785 173.025 14.0283C172.42 14.0781 171.858 14.1778 171.346 14.3415C170.833 14.5052 170.406 14.7329 170.065 15.0247C169.723 15.3165 169.552 15.7222 169.552 16.2347C169.552 16.555 169.623 16.8254 169.766 17.0461C169.908 17.2667 170.093 17.4375 170.321 17.5728C170.549 17.708 170.805 17.8005 171.089 17.8575C171.374 17.9144 171.659 17.9429 171.944 17.9429C173.118 17.9429 174.015 17.6297 174.62 17.0034C175.225 16.377 175.531 15.5229 175.531 14.4411V13.9571Z" fill="#F2994A"/>
<path d="M180.712 6.52637H184.498L188.313 16.4623H188.37L191.758 6.52637H195.317L188.854 23.1242C188.605 23.7506 188.342 24.3057 188.057 24.7897C187.772 25.2737 187.431 25.6794 187.032 26.0139C186.634 26.3484 186.164 26.5975 185.623 26.7684C185.082 26.9392 184.434 27.0246 183.673 27.0246C183.388 27.0246 183.096 27.0103 182.804 26.9819C182.513 26.9534 182.214 26.9036 181.908 26.8253L182.192 23.8644C182.42 23.9427 182.641 23.9926 182.861 24.021C183.082 24.0495 183.281 24.0637 183.473 24.0637C183.836 24.0637 184.135 24.021 184.385 23.9356C184.634 23.8502 184.84 23.715 185.011 23.537C185.182 23.3591 185.331 23.1313 185.466 22.868C185.602 22.6047 185.744 22.2915 185.893 21.9285L186.577 20.1918L180.712 6.52637Z" fill="#F2994A"/>
<path d="M165.492 37.824C164.969 37.1147 164.288 36.6013 163.448 36.284C162.608 35.948 161.787 35.78 160.984 35.78C159.957 35.78 159.024 35.9667 158.184 36.34C157.344 36.7133 156.616 37.2267 156 37.88C155.403 38.5333 154.936 39.2987 154.6 40.176C154.283 41.0533 154.124 42.0053 154.124 43.032C154.124 44.1147 154.283 45.104 154.6 46C154.917 46.896 155.365 47.6707 155.944 48.324C156.541 48.9587 157.251 49.4533 158.072 49.808C158.893 50.1627 159.817 50.34 160.844 50.34C161.908 50.34 162.851 50.1347 163.672 49.724C164.493 49.2947 165.156 48.7347 165.66 48.044L168.488 50.032C167.611 51.1333 166.537 51.992 165.268 52.608C163.999 53.2053 162.515 53.504 160.816 53.504C159.267 53.504 157.839 53.252 156.532 52.748C155.244 52.2253 154.133 51.5067 153.2 50.592C152.267 49.6587 151.539 48.5573 151.016 47.288C150.493 46 150.232 44.5813 150.232 43.032C150.232 41.4453 150.503 40.0173 151.044 38.748C151.604 37.46 152.36 36.368 153.312 35.472C154.283 34.576 155.421 33.8853 156.728 33.4C158.035 32.9147 159.453 32.672 160.984 32.672C161.619 32.672 162.281 32.7373 162.972 32.868C163.663 32.98 164.325 33.1667 164.96 33.428C165.595 33.6707 166.192 33.9787 166.752 34.352C167.312 34.7253 167.788 35.1733 168.18 35.696L165.492 37.824ZM168 46.224C168 45.16 168.187 44.1987 168.56 43.34C168.952 42.4627 169.475 41.716 170.128 41.1C170.781 40.484 171.556 40.008 172.452 39.672C173.348 39.336 174.3 39.168 175.308 39.168C176.316 39.168 177.268 39.336 178.164 39.672C179.06 40.008 179.835 40.484 180.488 41.1C181.141 41.716 181.655 42.4627 182.028 43.34C182.42 44.1987 182.616 45.16 182.616 46.224C182.616 47.288 182.42 48.2587 182.028 49.136C181.655 50.0133 181.141 50.7693 180.488 51.404C179.835 52.02 179.06 52.5053 178.164 52.86C177.268 53.2147 176.316 53.392 175.308 53.392C174.3 53.392 173.348 53.2147 172.452 52.86C171.556 52.5053 170.781 52.02 170.128 51.404C169.475 50.7693 168.952 50.0133 168.56 49.136C168.187 48.2587 168 47.288 168 46.224ZM171.416 46.224C171.416 46.7467 171.491 47.2693 171.64 47.792C171.808 48.3147 172.051 48.7813 172.368 49.192C172.685 49.6027 173.087 49.9387 173.572 50.2C174.057 50.4613 174.636 50.592 175.308 50.592C175.98 50.592 176.559 50.4613 177.044 50.2C177.529 49.9387 177.931 49.6027 178.248 49.192C178.565 48.7813 178.799 48.3147 178.948 47.792C179.116 47.2693 179.2 46.7467 179.2 46.224C179.2 45.7013 179.116 45.188 178.948 44.684C178.799 44.1613 178.565 43.6947 178.248 43.284C177.931 42.8733 177.529 42.5467 177.044 42.304C176.559 42.0427 175.98 41.912 175.308 41.912C174.636 41.912 174.057 42.0427 173.572 42.304C173.087 42.5467 172.685 42.8733 172.368 43.284C172.051 43.6947 171.808 44.1613 171.64 44.684C171.491 45.188 171.416 45.7013 171.416 46.224ZM184.474 39.56H187.666V41.716H187.722C188.02 41.044 188.534 40.456 189.262 39.952C190.008 39.4293 190.886 39.168 191.894 39.168C192.771 39.168 193.518 39.3267 194.134 39.644C194.768 39.9427 195.282 40.344 195.674 40.848C196.084 41.352 196.383 41.9307 196.57 42.584C196.756 43.2373 196.85 43.9093 196.85 44.6V53H193.49V45.552C193.49 45.16 193.462 44.7493 193.406 44.32C193.35 43.8907 193.228 43.508 193.042 43.172C192.855 42.8173 192.594 42.528 192.258 42.304C191.94 42.08 191.511 41.968 190.97 41.968C190.428 41.968 189.962 42.08 189.57 42.304C189.178 42.5093 188.851 42.78 188.59 43.116C188.347 43.452 188.16 43.844 188.03 44.292C187.899 44.7213 187.834 45.16 187.834 45.608V53H184.474V39.56ZM197.439 42.248V39.56H199.791V35.668H203.095V39.56H206.455V42.248H203.095V48.492C203.095 49.0893 203.197 49.584 203.403 49.976C203.627 50.368 204.112 50.564 204.859 50.564C205.083 50.564 205.325 50.5453 205.587 50.508C205.848 50.452 206.081 50.3773 206.287 50.284L206.399 52.916C206.1 53.028 205.745 53.112 205.335 53.168C204.924 53.2427 204.532 53.28 204.159 53.28C203.263 53.28 202.535 53.1587 201.975 52.916C201.415 52.6547 200.967 52.3093 200.631 51.88C200.313 51.432 200.089 50.928 199.959 50.368C199.847 49.7893 199.791 49.1733 199.791 48.52V42.248H197.439ZM207.486 39.56H210.706V41.8H210.762C211.136 41.016 211.658 40.3813 212.33 39.896C213.002 39.4107 213.786 39.168 214.682 39.168C214.813 39.168 214.953 39.1773 215.102 39.196C215.252 39.196 215.382 39.2147 215.494 39.252V42.332C215.27 42.276 215.074 42.2387 214.906 42.22C214.757 42.2013 214.608 42.192 214.458 42.192C213.693 42.192 213.077 42.332 212.61 42.612C212.144 42.892 211.78 43.228 211.518 43.62C211.257 44.012 211.08 44.4133 210.986 44.824C210.893 45.2347 210.846 45.5613 210.846 45.804V53H207.486V39.56ZM215.009 46.224C215.009 45.16 215.196 44.1987 215.569 43.34C215.961 42.4627 216.484 41.716 217.137 41.1C217.791 40.484 218.565 40.008 219.461 39.672C220.357 39.336 221.309 39.168 222.317 39.168C223.325 39.168 224.277 39.336 225.173 39.672C226.069 40.008 226.844 40.484 227.497 41.1C228.151 41.716 228.664 42.4627 229.037 43.34C229.429 44.1987 229.625 45.16 229.625 46.224C229.625 47.288 229.429 48.2587 229.037 49.136C228.664 50.0133 228.151 50.7693 227.497 51.404C226.844 52.02 226.069 52.5053 225.173 52.86C224.277 53.2147 223.325 53.392 222.317 53.392C221.309 53.392 220.357 53.2147 219.461 52.86C218.565 52.5053 217.791 52.02 217.137 51.404C216.484 50.7693 215.961 50.0133 215.569 49.136C215.196 48.2587 215.009 47.288 215.009 46.224ZM218.425 46.224C218.425 46.7467 218.5 47.2693 218.649 47.792C218.817 48.3147 219.06 48.7813 219.377 49.192C219.695 49.6027 220.096 49.9387 220.581 50.2C221.067 50.4613 221.645 50.592 222.317 50.592C222.989 50.592 223.568 50.4613 224.053 50.2C224.539 49.9387 224.94 49.6027 225.257 49.192C225.575 48.7813 225.808 48.3147 225.957 47.792C226.125 47.2693 226.209 46.7467 226.209 46.224C226.209 45.7013 226.125 45.188 225.957 44.684C225.808 44.1613 225.575 43.6947 225.257 43.284C224.94 42.8733 224.539 42.5467 224.053 42.304C223.568 42.0427 222.989 41.912 222.317 41.912C221.645 41.912 221.067 42.0427 220.581 42.304C220.096 42.5467 219.695 42.8733 219.377 43.284C219.06 43.6947 218.817 44.1613 218.649 44.684C218.5 45.188 218.425 45.7013 218.425 46.224ZM231.539 31.832H234.899V53H231.539V31.832ZM257.651 37.824C257.129 37.1147 256.447 36.6013 255.607 36.284C254.767 35.948 253.946 35.78 253.143 35.78C252.117 35.78 251.183 35.9667 250.343 36.34C249.503 36.7133 248.775 37.2267 248.159 37.88C247.562 38.5333 247.095 39.2987 246.759 40.176C246.442 41.0533 246.283 42.0053 246.283 43.032C246.283 44.1147 246.442 45.104 246.759 46C247.077 46.896 247.525 47.6707 248.103 48.324C248.701 48.9587 249.41 49.4533 250.231 49.808C251.053 50.1627 251.977 50.34 253.003 50.34C254.067 50.34 255.01 50.1347 255.831 49.724C256.653 49.2947 257.315 48.7347 257.819 48.044L260.647 50.032C259.77 51.1333 258.697 51.992 257.427 52.608C256.158 53.2053 254.674 53.504 252.975 53.504C251.426 53.504 249.998 53.252 248.691 52.748C247.403 52.2253 246.293 51.5067 245.359 50.592C244.426 49.6587 243.698 48.5573 243.175 47.288C242.653 46 242.391 44.5813 242.391 43.032C242.391 41.4453 242.662 40.0173 243.203 38.748C243.763 37.46 244.519 36.368 245.471 35.472C246.442 34.576 247.581 33.8853 248.887 33.4C250.194 32.9147 251.613 32.672 253.143 32.672C253.778 32.672 254.441 32.7373 255.131 32.868C255.822 32.98 256.485 33.1667 257.119 33.428C257.754 33.6707 258.351 33.9787 258.911 34.352C259.471 34.7253 259.947 35.1733 260.339 35.696L257.651 37.824ZM270.407 44.936C270.407 44.5067 270.342 44.096 270.211 43.704C270.099 43.312 269.913 42.9667 269.651 42.668C269.39 42.3693 269.054 42.136 268.643 41.968C268.251 41.7813 267.785 41.688 267.243 41.688C266.235 41.688 265.377 41.996 264.667 42.612C263.977 43.2093 263.594 43.984 263.519 44.936H270.407ZM273.767 46.448C273.767 46.5973 273.767 46.7467 273.767 46.896C273.767 47.0453 273.758 47.1947 273.739 47.344H263.519C263.557 47.8293 263.678 48.2773 263.883 48.688C264.107 49.08 264.397 49.4253 264.751 49.724C265.106 50.004 265.507 50.228 265.955 50.396C266.403 50.564 266.87 50.648 267.355 50.648C268.195 50.648 268.905 50.4987 269.483 50.2C270.062 49.8827 270.538 49.4533 270.911 48.912L273.151 50.704C271.826 52.496 269.903 53.392 267.383 53.392C266.338 53.392 265.377 53.2333 264.499 52.916C263.622 52.58 262.857 52.1133 262.203 51.516C261.569 50.9187 261.065 50.1907 260.691 49.332C260.337 48.4547 260.159 47.4653 260.159 46.364C260.159 45.2813 260.337 44.3013 260.691 43.424C261.065 42.528 261.569 41.772 262.203 41.156C262.838 40.5213 263.585 40.036 264.443 39.7C265.321 39.3453 266.263 39.168 267.271 39.168C268.205 39.168 269.063 39.3267 269.847 39.644C270.65 39.9427 271.341 40.4 271.919 41.016C272.498 41.6133 272.946 42.3693 273.263 43.284C273.599 44.18 273.767 45.2347 273.767 46.448ZM275.621 39.56H278.813V41.716H278.869C279.168 41.044 279.681 40.456 280.409 39.952C281.156 39.4293 282.033 39.168 283.041 39.168C283.919 39.168 284.665 39.3267 285.281 39.644C285.916 39.9427 286.429 40.344 286.821 40.848C287.232 41.352 287.531 41.9307 287.717 42.584C287.904 43.2373 287.997 43.9093 287.997 44.6V53H284.637V45.552C284.637 45.16 284.609 44.7493 284.553 44.32C284.497 43.8907 284.376 43.508 284.189 43.172C284.003 42.8173 283.741 42.528 283.405 42.304C283.088 42.08 282.659 41.968 282.117 41.968C281.576 41.968 281.109 42.08 280.717 42.304C280.325 42.5093 279.999 42.78 279.737 43.116C279.495 43.452 279.308 43.844 279.177 44.292C279.047 44.7213 278.981 45.16 278.981 45.608V53H275.621V39.56ZM288.586 42.248V39.56H290.938V35.668H294.242V39.56H297.602V42.248H294.242V48.492C294.242 49.0893 294.345 49.584 294.55 49.976C294.774 50.368 295.26 50.564 296.006 50.564C296.23 50.564 296.473 50.5453 296.734 50.508C296.996 50.452 297.229 50.3773 297.434 50.284L297.546 52.916C297.248 53.028 296.893 53.112 296.482 53.168C296.072 53.2427 295.68 53.28 295.306 53.28C294.41 53.28 293.682 53.1587 293.122 52.916C292.562 52.6547 292.114 52.3093 291.778 51.88C291.461 51.432 291.237 50.928 291.106 50.368C290.994 49.7893 290.938 49.1733 290.938 48.52V42.248H288.586ZM308.098 44.936C308.098 44.5067 308.033 44.096 307.902 43.704C307.79 43.312 307.603 42.9667 307.342 42.668C307.081 42.3693 306.745 42.136 306.334 41.968C305.942 41.7813 305.475 41.688 304.934 41.688C303.926 41.688 303.067 41.996 302.358 42.612C301.667 43.2093 301.285 43.984 301.21 44.936H308.098ZM311.458 46.448C311.458 46.5973 311.458 46.7467 311.458 46.896C311.458 47.0453 311.449 47.1947 311.43 47.344H301.21C301.247 47.8293 301.369 48.2773 301.574 48.688C301.798 49.08 302.087 49.4253 302.442 49.724C302.797 50.004 303.198 50.228 303.646 50.396C304.094 50.564 304.561 50.648 305.046 50.648C305.886 50.648 306.595 50.4987 307.174 50.2C307.753 49.8827 308.229 49.4533 308.602 48.912L310.842 50.704C309.517 52.496 307.594 53.392 305.074 53.392C304.029 53.392 303.067 53.2333 302.19 52.916C301.313 52.58 300.547 52.1133 299.894 51.516C299.259 50.9187 298.755 50.1907 298.382 49.332C298.027 48.4547 297.85 47.4653 297.85 46.364C297.85 45.2813 298.027 44.3013 298.382 43.424C298.755 42.528 299.259 41.772 299.894 41.156C300.529 40.5213 301.275 40.036 302.134 39.7C303.011 39.3453 303.954 39.168 304.962 39.168C305.895 39.168 306.754 39.3267 307.538 39.644C308.341 39.9427 309.031 40.4 309.61 41.016C310.189 41.6133 310.637 42.3693 310.954 43.284C311.29 44.18 311.458 45.2347 311.458 46.448ZM313.312 39.56H316.532V41.8H316.588C316.961 41.016 317.484 40.3813 318.156 39.896C318.828 39.4107 319.612 39.168 320.508 39.168C320.639 39.168 320.779 39.1773 320.928 39.196C321.077 39.196 321.208 39.2147 321.32 39.252V42.332C321.096 42.276 320.9 42.2387 320.732 42.22C320.583 42.2013 320.433 42.192 320.284 42.192C319.519 42.192 318.903 42.332 318.436 42.612C317.969 42.892 317.605 43.228 317.344 43.62C317.083 44.012 316.905 44.4133 316.812 44.824C316.719 45.2347 316.672 45.5613 316.672 45.804V53H313.312V39.56Z" fill="#18A0FB"/>
<path d="M39.7719 15.8646L30.7185 31.6084L18.2132 53.3379H0.106445L21.6652 15.8646L30.7185 0.12793L39.7719 15.8646Z" fill="url(#paint0_linear_472_1017)"/>
<path d="M61.3237 53.3385H43.2169L30.7188 31.609L39.772 15.8652L61.3237 53.3385Z" fill="#18A0FB"/>
<path d="M61.3096 53.338L69.7437 38.9537L84.0427 14.5622L92.5266 0.0996094L109.103 0.177901L86.3274 39.032L109.943 39.1459L101.509 53.5302L77.9003 53.4163L61.3096 53.338Z" fill="#18A0FB"/>
<path d="M109.125 0.192171L100.691 14.5765L86.3916 38.968L77.9076 53.4306L61.3311 53.3523L84.1069 14.4982L60.4912 14.3843L68.9254 0L92.5339 0.113879L109.125 0.192171Z" fill="url(#paint1_linear_472_1017)"/>
<defs>
<linearGradient id="paint0_linear_472_1017" x1="20.861" y1="54.6577" x2="20.3997" y2="4.79983" gradientUnits="userSpaceOnUse">
<stop stop-color="#C45C01"/>
<stop offset="1" stop-color="#FDB06C"/>
</linearGradient>
<linearGradient id="paint1_linear_472_1017" x1="85.9381" y1="54.7559" x2="85.5588" y2="4.68986" gradientUnits="userSpaceOnUse">
<stop stop-color="#C76107"/>
<stop offset="1" stop-color="#FDB06B"/>
</linearGradient>
</defs>
</svg>
