<svg xmlns="http://www.w3.org/2000/svg" width="12" height="12" fill="none" viewBox="0 0 12 12">
    <path fill="#353D9F" d="M1.714 0C1.26 0 .824.18.502.502.181.824 0 1.26 0 1.714V3.43c0 .454.18.89.502 1.212.322.321.758.502 1.212.502H3.43c.454 0 .89-.18 1.212-.502.321-.322.502-.758.502-1.212V1.714c0-.454-.18-.89-.502-1.212C4.319.181 3.883 0 3.429 0H1.714zm0 6.857c-.454 0-.89.18-1.212.502C.181 7.681 0 8.117 0 8.571v1.715c0 .454.18.89.502 1.212.322.321.758.502 1.212.502H3.43c.454 0 .89-.18 1.212-.502.321-.322.502-.758.502-1.212V8.57c0-.454-.18-.89-.502-1.212-.322-.321-.758-.502-1.212-.502H1.714zm5.143-5.143c0-.454.18-.89.502-1.212C7.681.181 8.117 0 8.571 0h1.715c.454 0 .89.18 1.212.502.321.322.502.758.502 1.212V3.43c0 .454-.18.89-.502 1.212-.322.321-.758.502-1.212.502H8.57c-.454 0-.89-.18-1.212-.502-.321-.322-.502-.758-.502-1.212V1.714zm0 6.857c0-.454.18-.89.502-1.212.322-.321.758-.502 1.212-.502h1.715c.454 0 .89.18 1.212.502.321.322.502.758.502 1.212v1.715c0 .454-.18.89-.502 1.212-.322.321-.758.502-1.212.502H8.57c-.454 0-.89-.18-1.212-.502-.321-.322-.502-.758-.502-1.212V8.57z"/>
</svg>
