<svg xmlns="http://www.w3.org/2000/svg" width="16" height="16" fill="none" viewBox="0 0 16 16">
    <path fill="#EB5757" fill-rule="evenodd" d="M0 8c0-4.417 3.583-8 8-8s8 3.583 8 8-3.583 8-8 8-8-3.583-8-8zM8 .941C4.103.941.941 4.103.941 8c0 3.897 3.162 7.059 7.059 7.059 3.897 0 7.059-3.162 7.059-7.059C15.059 4.103 11.897.941 8 .941z" clip-rule="evenodd"/>
    <path fill="#EB5757" fill-rule="evenodd" d="M5.158 5.157c.184-.183.482-.183.666 0l5.02 5.02c.183.184.183.482 0 .665-.184.184-.482.184-.666 0l-5.02-5.02c-.183-.183-.183-.48 0-.665z" clip-rule="evenodd"/>
    <path fill="#EB5757" fill-rule="evenodd" d="M10.844 5.157c.183.184.183.482 0 .666l-5.02 5.02c-.184.183-.482.183-.666 0-.183-.184-.183-.482 0-.666l5.02-5.02c.184-.183.482-.183.665 0z" clip-rule="evenodd"/>
</svg>
