<svg xmlns="http://www.w3.org/2000/svg" width="24" height="24" fill="none" viewBox="0 0 24 24">
    <path fill="#000" fill-rule="evenodd" d="M5.513 3.263c.328-.329.773-.513 1.237-.513h4.629c.04 0 .081.002.121.007V8.25c0 .53.21 1.04.586 1.414.375.375.884.586 1.414.586h5.493c.005.04.007.08.007.121V19.5c0 .464-.184.91-.513 1.237-.328.329-.773.513-1.237.513H6.75c-.464 0-.91-.184-1.237-.513C5.184 20.41 5 19.964 5 19.5v-15c0-.464.184-.91.513-1.237zm12.78 5.987L12.5 3.457V8.25c0 .265.105.52.293.707.187.188.442.293.707.293h4.793zM6.75 1.75c-.73 0-1.429.29-1.945.805C4.29 3.071 4 3.771 4 4.5v15c0 .73.29 1.429.805 1.945.516.515 1.216.805 1.945.805h10.5c.73 0 1.429-.29 1.945-.805.515-.516.805-1.216.805-1.945v-9.129c0-.53-.21-1.039-.586-1.414l-6.621-6.621c-.375-.375-.884-.586-1.414-.586H6.75zm1 11.75c0-.276.224-.5.5-.5h7.5c.276 0 .5.224.5.5s-.224.5-.5.5h-7.5c-.276 0-.5-.224-.5-.5zm.5 3.25c-.276 0-.5.224-.5.5s.224.5.5.5h7.5c.276 0 .5-.224.5-.5s-.224-.5-.5-.5h-7.5z" clip-rule="evenodd" opacity=".5"/>
</svg>
