<svg xmlns="http://www.w3.org/2000/svg" width="16" height="16" fill="none" viewBox="0 0 16 16">
    <g stroke="#000" stroke-linejoin="round" opacity=".5">
        <path d="M13 6.914V13c0 .398-.158.78-.44 1.06-.28.282-.662.44-1.06.44h-7c-.398 0-.78-.158-1.06-.44C3.157 13.78 3 13.399 3 13V3c0-.398.158-.78.44-1.06.28-.282.662-.44 1.06-.44h3.086c.265 0 .52.105.707.293l4.414 4.414c.188.188.293.442.293.707z"/>
        <path stroke-linecap="round" d="M8 1.75V5.5c0 .265.105.52.293.707.187.188.442.293.707.293h3.75M5.5 9h5M5.5 11.5h5"/>
    </g>
</svg>
