<svg xmlns="http://www.w3.org/2000/svg" width="16" height="14" fill="none" viewBox="0 0 16 14">
    <path fill="#EBEBEB" fill-rule="evenodd" d="M5.76 2.554h1.351v.334h.111V8.22h-.11v.778h1V8.22H8V2.888h.111v-.334h1.24c.17 0 .262-.198.153-.328L7.71.072c-.08-.096-.227-.096-.307 0L5.607 2.226c-.109.13-.016.328.153.328zm3.24 2v1h3.667c.552 0 1 .448 1 1v5.667H2.333V6.554c0-.552.448-1 1-1h2.89v-1h-2.89c-1.104 0-2 .896-2 2v5.667H0v1h16v-1h-1.333V6.554c0-1.104-.896-2-2-2H9z" clip-rule="evenodd"/>
</svg>
