<svg xmlns="http://www.w3.org/2000/svg" width="18" height="24" fill="none" viewBox="0 0 18 24">
    <path fill="#2F2E36" fill-rule="evenodd" d="M5.143 4.737c0-2.633 2-4.737 4.5-4.737s4.5 2.104 4.5 4.737c0 .91-.258 1.613-.706 2.326l-3.32 5.305c-.1.157-.275.264-.474.264-.2 0-.373-.104-.474-.264L5.85 7.063c-.448-.713-.706-1.416-.706-2.326zm4.5 2.842c1.775 0 3.214-1.414 3.214-3.158s-1.439-3.158-3.214-3.158-3.214 1.414-3.214 3.158S7.868 7.58 9.643 7.58zm-4.035 2.526H2.57c-.34 0-.667.134-.908.37-.241.237-.377.559-.377.893v8.842c0 .335.136.656.377.893.24.237.568.37.908.37H15.43c.34 0 .667-.133.908-.37s.377-.558.377-.893v-8.842c0-.335-.136-.656-.377-.892-.24-.237-.567-.37-.908-.37h-1.751l-.888 1.262h2.639v8.842H2.57v-8.842h3.924l-.887-1.263zM0 22.737h18V24H0v-1.263zM8.594 5.263V3.19h-.62v2.074h.62zm.042-2.502c.02-.044.03-.09.03-.14 0-.05-.01-.098-.03-.142-.02-.044-.047-.083-.082-.116-.034-.033-.075-.06-.122-.078-.045-.019-.094-.028-.146-.028-.05 0-.098.01-.142.028-.044.019-.083.045-.118.078-.033.033-.06.072-.08.116-.018.044-.028.091-.028.142 0 .05.01.096.028.14.02.043.047.08.08.114.035.032.074.058.118.078.044.019.092.028.142.028.052 0 .1-.01.146-.028.047-.02.088-.046.122-.078.035-.033.062-.071.082-.114zm.459.428v2.732h.62v-.796c.06.052.127.093.2.124.073.03.164.046.272.046.132 0 .252-.027.36-.082.11-.055.202-.13.28-.228.079-.097.14-.212.182-.344.044-.132.066-.276.066-.432 0-.167-.02-.315-.058-.446-.037-.132-.09-.243-.156-.334-.067-.09-.146-.16-.238-.208-.092-.048-.192-.072-.3-.072-.072 0-.139.007-.2.022-.06.015-.117.035-.17.062-.052.025-.101.056-.148.092-.045.036-.088.076-.128.12l-.046-.152c-.01-.035-.03-.06-.056-.078-.025-.017-.057-.026-.096-.026h-.384zm.888.448c.037-.01.079-.014.124-.014.05 0 .094.01.134.03.04.02.074.053.102.1.03.045.052.105.068.18.016.075.024.167.024.276 0 .115-.01.212-.03.292-.02.08-.048.145-.084.196-.035.05-.076.085-.124.108-.048.023-.1.034-.158.034-.06 0-.117-.01-.172-.03-.055-.021-.105-.058-.152-.11v-.88c.027-.032.053-.06.08-.084.027-.025.055-.046.086-.062.032-.016.066-.028.102-.036z" clip-rule="evenodd"/>
</svg>
