<svg xmlns="http://www.w3.org/2000/svg" width="317" height="60" fill="none" viewBox="0 0 317 60">
    <g clip-path="url(#clip0)">
        <path fill="#043873" d="M132.384 43.466h6.627l2.099-2.1c.406-.405 1.054-.405 1.459 0l2.157 2.157c.406.406.406 1.053 0 1.46l-2.157 2.156c-.405.405-1.053.405-1.459 0l-2.156-2.157c-.007-.007-.007-.007-.007-.014h-6.563c-.412 0-.754-.335-.754-.755.007-.412.342-.747.754-.747zM120.05 16.79h6.626l2.1-2.1c.405-.405 1.053-.405 1.459 0l2.156 2.157c.406.406.406 1.053 0 1.459l-2.156 2.157c-.406.405-1.054.405-1.459 0l-2.157-2.157c-.007-.007-.007-.007-.007-.014h-6.555c-.413 0-.755-.335-.755-.755-.007-.405.335-.747.748-.747zM113.673 28.584h6.626l2.1-2.1c.405-.406 1.053-.406 1.459 0l2.156 2.157c.406.405.406 1.053 0 1.459l-2.156 2.156c-.406.406-1.054.406-1.459 0l-2.157-2.156c-.007-.008-.007-.008-.007-.015h-6.555c-.413 0-.755-.334-.755-.754 0-.413.335-.747.748-.747z"/>
        <path fill="url(#paint0_linear)" d="M117.879 40.84l3.018 2.904h4.555c.178-.933.996-1.644 1.986-1.644 1.117 0 2.021.904 2.021 2.021s-.904 2.021-2.021 2.021c-.911 0-1.68-.605-1.936-1.43h-4.989l-3.018-2.904h-10.861v-.968h11.245z"/>
        <path fill="url(#paint1_linear)" d="M90.968 28.377h15.779c.185-.925 1.004-1.615 1.979-1.615 1.117 0 2.021.904 2.021 2.02 0 1.118-.904 2.022-2.021 2.022-.925 0-1.701-.619-1.943-1.459H90.968v-.968z"/>
        <path fill="url(#paint2_linear)" d="M94.527 22.698h15.765c.164-.954.989-1.673 1.993-1.673 1.117 0 2.021.904 2.021 2.021 0 1.118-.904 2.022-2.021 2.022-.904 0-1.666-.591-1.922-1.402h-15.83v-.968h-.006z"/>
        <path fill="url(#paint3_linear)" d="M98.085 16.804h15.83c.263-.811 1.025-1.402 1.921-1.402 1.118 0 2.022.904 2.022 2.022 0 1.117-.904 2.02-2.022 2.02-.996 0-1.822-.725-1.993-1.672H98.078v-.968h.007z"/>
        <path fill="url(#paint4_linear)" d="M105.203 4.811h5.068c.199-.91 1.003-1.587 1.971-1.587 1.118 0 2.021.904 2.021 2.022 0 1.117-.903 2.02-2.021 2.02-.932 0-1.715-.633-1.95-1.487h-5.096v-.968h.007z"/>
        <path fill="url(#paint5_linear)" d="M114.811 12.868l9.616-9.48 10.413-.185.014.96-10.021.186-9.623 9.487h-14.278v-.968h13.879z"/>
        <path fill="url(#paint6_linear)" d="M136.868 5.701c1.117 0 2.022-.905 2.022-2.021 0-1.117-.905-2.022-2.022-2.022-1.116 0-2.021.905-2.021 2.022 0 1.116.905 2.021 2.021 2.021z"/>
        <path fill="url(#paint7_linear)" d="M106.541 49.331c1.117 0 2.021.904 2.021 2.021 0 1.118-.904 2.022-2.021 2.022-.954 0-1.758-.662-1.964-1.559h-5.06v-.968h5.074c.213-.868 1.003-1.516 1.95-1.516z"/>
        <path fill="url(#paint8_linear)" d="M108.733 45.53l4.861 5.103 12.506-.007c.213-.882 1.01-1.537 1.964-1.537 1.118 0 2.021.904 2.021 2.021 0 1.118-.903 2.022-2.021 2.022-.947 0-1.744-.655-1.964-1.538l-12.926.007-4.861-5.103h-8.811v-.968h9.231z"/>
        <path fill="#043873" d="M151.502.036h6.576c1.16 0 2.2.106 3.132.313.932.206 1.73.548 2.391 1.025.662.477 1.175 1.082 1.538 1.822s.541 1.63.541 2.676c0 1.117-.207 2.057-.627 2.818-.42.762-.982 1.374-1.694 1.837-.711.462-1.544.804-2.491 1.01-.946.207-1.957.313-3.017.313h-2.762v8.342h-3.587V.036zm6.092 8.797c.591 0 1.146-.043 1.68-.128.534-.086 1.004-.235 1.424-.456.419-.22.747-.52.996-.897s.37-.875.37-1.48c0-.59-.121-1.068-.37-1.438-.249-.37-.577-.662-.982-.868-.406-.207-.876-.349-1.395-.413-.52-.064-1.061-.1-1.609-.1h-2.619v5.78h2.505zM175.587 18.456h-.085c-.342.605-.89 1.103-1.651 1.494-.762.392-1.623.584-2.591.584-.548 0-1.125-.071-1.723-.214-.597-.142-1.146-.377-1.651-.712-.505-.334-.918-.768-1.253-1.31-.334-.54-.498-1.209-.498-2.006 0-1.025.292-1.844.869-2.449.576-.605 1.323-1.074 2.234-1.395.911-.32 1.922-.533 3.032-.64 1.111-.107 2.2-.157 3.26-.157v-.341c0-.854-.306-1.488-.925-1.894-.619-.405-1.352-.612-2.206-.612-.719 0-1.417.15-2.079.456-.662.306-1.217.676-1.651 1.11l-1.765-2.078c.776-.72 1.673-1.26 2.69-1.623 1.018-.363 2.043-.54 3.089-.54 1.217 0 2.214.17 3.004.512.79.341 1.409.79 1.865 1.338.455.548.775 1.167.953 1.85.178.683.271 1.367.271 2.05v8.313h-3.189v-1.736zm-.057-4.499h-.768c-.548 0-1.132.022-1.737.071-.605.05-1.167.15-1.68.314-.512.163-.939.391-1.281.683-.342.292-.512.697-.512 1.21 0 .32.071.59.213.811.142.22.328.392.555.527.228.135.484.228.769.285.285.057.569.085.854.085 1.174 0 2.071-.313 2.676-.94.605-.626.911-1.48.911-2.562v-.484zM180.712 6.527h3.786l3.815 9.936h.057l3.388-9.936h3.559l-6.463 16.598c-.249.626-.512 1.181-.797 1.665-.285.484-.626.89-1.025 1.224-.399.335-.868.584-1.409.755-.541.17-1.189.256-1.95.256-.285 0-.577-.014-.869-.043-.291-.028-.59-.078-.896-.156l.284-2.961c.228.078.449.128.669.156.221.029.42.043.612.043.363 0 .662-.043.911-.128s.456-.22.627-.399c.171-.178.32-.405.455-.669.135-.263.278-.576.427-.94l.684-1.736-5.865-13.665zM166.05 37.737c-.534-.72-1.224-1.246-2.078-1.58-.855-.335-1.687-.499-2.506-.499-1.046 0-1.993.192-2.847.57-.854.377-1.587.904-2.206 1.566s-1.089 1.444-1.424 2.334c-.334.89-.498 1.858-.498 2.904 0 1.103.164 2.107.484 3.018.32.91.783 1.694 1.381 2.349.598.654 1.317 1.16 2.149 1.523.833.363 1.773.54 2.819.54 1.082 0 2.043-.213 2.875-.64.833-.427 1.509-.99 2.022-1.694l2.875 2.022c-.89 1.117-1.986 1.985-3.274 2.605-1.288.619-2.797.925-4.527.925-1.573 0-3.025-.264-4.341-.783-1.317-.52-2.456-1.253-3.402-2.192-.947-.94-1.687-2.057-2.221-3.36-.534-1.302-.797-2.74-.797-4.313 0-1.616.277-3.068.84-4.37.562-1.303 1.331-2.406 2.306-3.317.975-.91 2.128-1.615 3.459-2.107 1.331-.49 2.768-.74 4.327-.74.648 0 1.317.064 2.022.185.704.121 1.373.313 2.021.57.648.256 1.253.576 1.822.953.569.378 1.053.833 1.452 1.367l-2.733 2.164zM170.007 46.278c0-1.082.192-2.064.584-2.947.391-.883.918-1.637 1.58-2.263.662-.627 1.452-1.11 2.363-1.452.911-.342 1.879-.513 2.904-.513s1.993.171 2.904.513c.911.341 1.701.825 2.363 1.452.662.626 1.188 1.38 1.58 2.263.391.883.583 1.865.583 2.947 0 1.081-.192 2.07-.583 2.96-.392.89-.918 1.659-1.58 2.292-.662.634-1.452 1.132-2.363 1.495-.911.363-1.879.54-2.904.54s-1.993-.177-2.904-.54c-.911-.363-1.701-.861-2.363-1.495-.662-.633-1.189-1.402-1.58-2.292-.385-.896-.584-1.879-.584-2.96zm3.473 0c0 .533.079 1.06.242 1.594.164.534.406 1.004.726 1.423.321.42.733.762 1.225 1.025.491.264 1.081.399 1.765.399.683 0 1.274-.135 1.765-.399.491-.263.904-.605 1.224-1.025.32-.42.562-.89.726-1.423.164-.534.242-1.06.242-1.594s-.078-1.06-.242-1.58c-.164-.52-.406-.99-.726-1.41-.32-.42-.733-.754-1.224-1.01-.491-.257-1.082-.385-1.765-.385-.684 0-1.274.128-1.765.385-.492.256-.904.59-1.225 1.01-.32.42-.562.89-.726 1.41-.163.52-.242 1.046-.242 1.58zM188.171 39.502h3.245v2.192h.057c.306-.683.833-1.288 1.58-1.808.748-.52 1.637-.783 2.662-.783.89 0 1.659.157 2.292.47.634.313 1.16.726 1.566 1.238.406.513.705 1.104.897 1.766.192.661.285 1.345.285 2.05v8.54h-3.417v-7.573c0-.398-.028-.818-.085-1.252-.057-.434-.178-.833-.37-1.182-.193-.349-.449-.64-.783-.868-.335-.228-.776-.342-1.324-.342s-1.025.107-1.424.328c-.398.22-.726.498-.982.84-.256.341-.448.732-.583 1.18-.136.45-.2.898-.2 1.353v7.516h-3.416V39.502zM205.281 42.235h-2.591v-2.733h2.591V37.48c0-.818.093-1.601.271-2.348.178-.748.484-1.41.911-1.979.427-.57.989-1.018 1.694-1.352.704-.335 1.587-.498 2.647-.498.378 0 .698.014.954.042.256.029.52.079.783.157l-.228 2.904c-.192-.057-.391-.107-.612-.143-.221-.035-.448-.057-.697-.057-.492 0-.89.093-1.196.285-.306.192-.534.434-.698.74-.163.306-.27.634-.327.997-.057.363-.085.712-.085 1.053v2.22h3.16v2.734h-3.16v10.932h-3.417V42.235zm8.598-7.374c0-.548.206-1.032.612-1.438.406-.405.925-.612 1.552-.612.626 0 1.153.193 1.58.584.427.391.64.875.64 1.466s-.213 1.075-.64 1.466c-.427.392-.954.584-1.58.584-.627 0-1.146-.206-1.552-.612-.406-.413-.612-.89-.612-1.438zm.484 4.64h3.416v13.666h-3.416V39.502zM235.516 39.502v12.441c0 1.231-.149 2.349-.455 3.345-.306.997-.776 1.844-1.41 2.534-.633.69-1.437 1.231-2.405 1.609-.968.377-2.114.569-3.445.569-.548 0-1.132-.05-1.751-.142-.619-.093-1.224-.235-1.822-.427-.598-.193-1.175-.427-1.723-.712s-1.046-.605-1.48-.968l1.964-2.648c.662.627 1.417 1.103 2.249 1.438.833.334 1.68.498 2.534.498.819 0 1.502-.12 2.064-.356.563-.235 1.004-.57 1.338-.982.335-.42.57-.918.712-1.487.143-.57.214-1.203.214-1.887v-.996h-.057c-.491.669-1.125 1.181-1.893 1.537-.769.356-1.63.534-2.577.534-1.025 0-1.957-.192-2.79-.57-.833-.377-1.545-.889-2.121-1.537-.577-.647-1.032-1.402-1.352-2.263-.321-.861-.484-1.78-.484-2.747 0-.99.156-1.915.469-2.79.314-.876.762-1.63 1.338-2.278.577-.648 1.282-1.16 2.107-1.537.826-.377 1.751-.57 2.776-.57.968 0 1.872.2 2.705.598.832.399 1.501 1.018 1.993 1.85h.057v-2.056h3.245zm-7.288 2.391c-.627 0-1.182.114-1.666.342-.484.228-.889.534-1.224.925-.334.385-.591.847-.769 1.374-.177.526-.27 1.096-.27 1.7 0 .549.093 1.083.27 1.588.178.512.435.968.769 1.374.335.405.74.733 1.224.982s1.032.37 1.637.37c.627 0 1.189-.121 1.694-.356.506-.235.933-.555 1.281-.954.349-.398.62-.854.812-1.373.192-.52.285-1.068.285-1.63 0-.584-.093-1.146-.285-1.673-.192-.526-.463-.996-.812-1.388-.348-.398-.775-.711-1.266-.94-.492-.227-1.054-.34-1.68-.34zM252.085 53.167h-3.245v-2.192h-.057c-.306.683-.833 1.288-1.58 1.808-.747.52-1.637.783-2.662.783-.89 0-1.658-.157-2.292-.47-.633-.313-1.16-.726-1.566-1.238-.405-.513-.704-1.104-.896-1.765-.193-.662-.285-1.346-.285-2.05v-8.541h3.416v7.573c0 .398.029.818.086 1.252.057.435.178.833.37 1.182s.448.64.783.868c.334.228.775.342 1.323.342.534 0 1.004-.107 1.41-.328.405-.22.74-.498.996-.84.256-.341.449-.733.584-1.18.135-.45.199-.898.199-1.353v-7.516h3.416v13.665zM256.185 39.502h3.274v2.277h.057c.377-.797.911-1.445 1.594-1.936.684-.49 1.481-.74 2.392-.74.135 0 .277.007.427.014.149.008.285.036.398.072v3.131c-.227-.057-.42-.092-.583-.114-.164-.02-.321-.028-.47-.028-.776 0-1.402.142-1.879.427-.477.285-.847.626-1.11 1.025-.264.398-.449.804-.541 1.224-.093.42-.143.747-.143.996v7.317h-3.416V39.502zM274.662 51.43h-.085c-.342.606-.89 1.104-1.652 1.495-.761.392-1.623.584-2.59.584-.549 0-1.125-.071-1.723-.214-.598-.142-1.146-.377-1.651-.711-.505-.335-.918-.769-1.253-1.31-.334-.54-.498-1.21-.498-2.007 0-1.025.292-1.844.868-2.449.577-.604 1.324-1.074 2.235-1.395.911-.32 1.922-.533 3.032-.64 1.111-.107 2.199-.157 3.26-.157v-.341c0-.854-.306-1.488-.925-1.893-.62-.406-1.353-.613-2.207-.613-.719 0-1.416.15-2.078.456-.662.306-1.217.676-1.651 1.11l-1.765-2.078c.775-.719 1.672-1.26 2.69-1.623s2.043-.54 3.089-.54c1.217 0 2.214.17 3.004.512.79.341 1.409.79 1.864 1.338.456.548.776 1.167.954 1.85.178.684.271 1.367.271 2.05v8.313h-3.189v-1.736zm-.057-4.498h-.769c-.548 0-1.131.022-1.736.072-.605.05-1.168.149-1.68.313-.513.163-.94.391-1.281.683-.342.292-.513.697-.513 1.21 0 .32.072.59.214.811.142.221.327.392.555.527.228.135.484.228.769.285.284.057.569.085.854.085 1.174 0 2.071-.313 2.676-.94.605-.626.911-1.48.911-2.562v-.484zM279.587 42.235v-2.733h2.392v-3.958h3.359v3.958h3.416v2.733h-3.416v6.349c0 .605.107 1.11.327 1.508.221.4.705.598 1.467.598.227 0 .477-.02.74-.07s.505-.122.712-.214l.113 2.676c-.306.114-.661.206-1.081.27-.42.064-.819.1-1.196.1-.911 0-1.651-.128-2.221-.384-.569-.257-1.018-.605-1.352-1.054-.335-.448-.562-.96-.683-1.537s-.185-1.203-.185-1.865v-6.377h-2.392zM290.434 46.278c0-1.082.192-2.064.584-2.947.391-.883.918-1.637 1.58-2.263.662-.627 1.452-1.11 2.363-1.452.911-.342 1.879-.513 2.904-.513s1.993.171 2.904.513c.911.341 1.701.825 2.363 1.452.662.626 1.188 1.38 1.58 2.263.391.883.583 1.865.583 2.947 0 1.081-.192 2.07-.583 2.96-.392.89-.918 1.659-1.58 2.292-.662.634-1.452 1.132-2.363 1.495-.911.363-1.879.54-2.904.54s-1.993-.177-2.904-.54c-.911-.363-1.701-.861-2.363-1.495-.662-.633-1.189-1.402-1.58-2.292-.392-.896-.584-1.879-.584-2.96zm3.474 0c0 .533.078 1.06.242 1.594.163.534.405 1.004.725 1.423.321.42.734.762 1.225 1.025.491.264 1.082.399 1.765.399.683 0 1.274-.135 1.765-.399.491-.263.904-.605 1.224-1.025.32-.42.562-.89.726-1.423.164-.534.242-1.06.242-1.594s-.078-1.06-.242-1.58c-.164-.52-.406-.99-.726-1.41-.32-.42-.733-.754-1.224-1.01-.491-.257-1.082-.385-1.765-.385-.683 0-1.274.128-1.765.385-.491.256-.904.59-1.225 1.01-.32.42-.562.89-.725 1.41-.164.52-.242 1.046-.242 1.58zM308.598 39.502h3.274v2.277h.057c.377-.797.911-1.445 1.594-1.936.683-.49 1.481-.74 2.392-.74.135 0 .277.007.427.014.149.008.284.036.398.072v3.131c-.228-.057-.42-.092-.583-.114-.164-.02-.321-.028-.47-.028-.776 0-1.402.142-1.879.427-.477.285-.847.626-1.11 1.025-.264.398-.449.804-.541 1.224-.093.42-.143.747-.143.996v7.317h-3.416V39.502z"/>
        <path fill="url(#paint9_linear)" d="M39.772 15.865L30.72 31.608l-12.505 21.73H.107l21.559-37.473L30.719.128l9.053 15.737z"/>
        <path fill="#043873" d="M61.324 53.338H43.217L30.72 31.608l9.053-15.743 21.552 37.473z"/>
        <path fill="#043873" d="M61.31 53.338l8.434-14.384 14.299-24.392L92.527.1l16.576.078-22.776 38.854 23.616.114-8.434 14.384-23.609-.114-16.59-.078z"/>
        <path fill="url(#paint10_linear)" d="M109.125.192l-8.435 14.384-14.299 24.392-8.484 14.463-16.576-.079 22.776-38.854-23.616-.114L68.925 0l23.609.114 16.591.078z"/>
    </g>
    <defs>
        <linearGradient id="paint0_linear" x1="106.627" x2="129.451" y1="43.492" y2="43.492" gradientUnits="userSpaceOnUse">
            <stop stop-color="#14569D"/>
            <stop offset="1" stop-color="#63A4EC"/>
        </linearGradient>
        <linearGradient id="paint1_linear" x1="90.968" x2="110.748" y1="28.781" y2="28.781" gradientUnits="userSpaceOnUse">
            <stop stop-color="#14569D"/>
            <stop offset="1" stop-color="#63A4EC"/>
        </linearGradient>
        <linearGradient id="paint2_linear" x1="94.527" x2="114.307" y1="23.044" y2="23.044" gradientUnits="userSpaceOnUse">
            <stop stop-color="#14569D"/>
            <stop offset="1" stop-color="#63A4EC"/>
        </linearGradient>
        <linearGradient id="paint3_linear" x1="98.086" x2="117.865" y1="17.423" y2="17.423" gradientUnits="userSpaceOnUse">
            <stop stop-color="#14569D"/>
            <stop offset="1" stop-color="#63A4EC"/>
        </linearGradient>
        <linearGradient id="paint4_linear" x1="105.203" x2="114.269" y1="5.245" y2="5.245" gradientUnits="userSpaceOnUse">
            <stop stop-color="#14569D"/>
            <stop offset="1" stop-color="#63A4EC"/>
        </linearGradient>
        <linearGradient id="paint5_linear" x1="100.933" x2="134.856" y1="8.518" y2="8.518" gradientUnits="userSpaceOnUse">
            <stop stop-color="#14569D"/>
            <stop offset="1" stop-color="#63A4EC"/>
        </linearGradient>
        <linearGradient id="paint6_linear" x1="134.847" x2="138.891" y1="3.683" y2="3.683" gradientUnits="userSpaceOnUse">
            <stop stop-color="#14569D"/>
            <stop offset="1" stop-color="#63A4EC"/>
        </linearGradient>
        <linearGradient id="paint7_linear" x1="99.509" x2="108.56" y1="51.353" y2="51.353" gradientUnits="userSpaceOnUse">
            <stop stop-color="#14569D"/>
            <stop offset="1" stop-color="#63A4EC"/>
        </linearGradient>
        <linearGradient id="paint8_linear" x1="99.509" x2="130.085" y1="49.331" y2="49.331" gradientUnits="userSpaceOnUse">
            <stop stop-color="#14569D"/>
            <stop offset="1" stop-color="#63A4EC"/>
        </linearGradient>
        <linearGradient id="paint9_linear" x1="20.861" x2="19.04" y1="54.658" y2="15.034" gradientUnits="userSpaceOnUse">
            <stop stop-color="#14569D"/>
            <stop offset="1" stop-color="#63A4EC"/>
        </linearGradient>
        <linearGradient id="paint10_linear" x1="84.807" x2="84.807" y1="44.653" y2=".546" gradientUnits="userSpaceOnUse">
            <stop stop-color="#14569D"/>
            <stop offset="1" stop-color="#63A4EC"/>
        </linearGradient>
        <clipPath id="clip0">
            <path fill="#fff" d="M0 0H316.74V60H0z"/>
        </clipPath>
    </defs>
</svg>
