<svg width="38" height="48" viewBox="0 0 38 48" fill="none" xmlns="http://www.w3.org/2000/svg">
<path fill-rule="evenodd" clip-rule="evenodd" d="M1.46543 0.0665952C1.01169 0.204655 0.62084 0.478643 0.383471 0.825161C-0.112468 1.54893 -0.12738 2.27423 0.338837 2.99323C0.72167 3.58371 1.26153 3.84969 2.18646 3.90345L2.95223 3.94788L3.17377 5.28029C3.83891 9.27935 5.89317 13.5928 8.76138 17.0125C10.7218 19.3498 13.3418 21.517 15.5423 22.6215C16.4361 23.0702 16.7987 23.4721 16.7987 24.0138C16.7987 24.5542 16.3525 25.0416 15.4378 25.4998C13.1515 26.6453 10.5387 28.8708 8.48008 31.426C5.56876 35.0396 3.51573 39.6049 3.05083 43.4988L2.98266 44.0697L2.20168 44.1149C1.26052 44.1693 0.724004 44.4317 0.338837 45.0258C-0.288162 45.9926 0.00966534 47.1852 1.02315 47.7664L1.43063 48H18.5232H35.6158L36.0233 47.7664C37.0368 47.1852 37.3346 45.9926 36.7076 45.0258C36.3227 44.4323 35.7857 44.1693 34.8471 44.1151L34.0686 44.0699L34.0017 43.499C33.8781 42.4419 33.525 40.9074 33.1165 39.6514C31.8645 35.8017 29.7202 32.3519 26.6977 29.3245C25.0959 27.7202 23.5821 26.5377 22.1662 25.7847C20.9269 25.1257 20.3995 24.7016 20.2934 24.2792C20.1197 23.5869 20.5554 23.0585 21.8546 22.3858C24.1838 21.18 27.0908 18.595 29.0727 15.9674C31.6938 12.4925 33.5791 8.1132 34.0017 4.51807L34.0686 3.9491L34.8471 3.90396C35.7857 3.84969 36.3227 3.58676 36.7076 2.99323C37.3346 2.02641 37.0368 0.833784 36.0233 0.252636L35.6158 0.0190198L18.6754 0.00177526C9.35815 -0.00765863 1.61363 0.0214546 1.46543 0.0665952ZM32.048 4.40629C31.6966 8.32176 30.714 11.4192 28.9991 14.0177C26.8872 17.2174 23.6169 20.2618 20.8972 21.5598C20.3255 21.8326 20.1263 21.992 19.8867 22.3675C19.1842 23.4691 19.118 24.2337 19.6401 25.2133C20.043 25.9692 20.0978 26.0179 21.1607 26.5638C22.7239 27.3668 24.2401 28.5093 25.779 30.0446C29.5077 33.7642 31.3506 37.5156 31.9084 42.5223C31.9706 43.0802 32.0399 43.6851 32.0624 43.8663L32.1034 44.196H31.3185H30.5338L30.4103 43.3426C30.3425 42.8732 30.2154 42.1029 30.1277 41.6308L29.9686 40.7724L26.9086 40.768C23.7993 40.7634 22.2444 40.6711 17.1538 40.1883C12.4048 39.738 9.73144 39.6791 8.41689 39.9957C8.00098 40.0958 7.44307 40.3897 7.25145 40.6095C7.08123 40.8048 6.8609 41.7782 6.64047 43.3084L6.51266 44.196H5.7263H4.93984L4.99228 43.6635C5.30837 40.4524 5.99613 37.8003 7.06682 35.6647C8.76452 32.2786 12.6834 28.2302 15.7953 26.6481C16.8687 26.1022 17.1401 25.8453 17.6171 24.9225C17.8338 24.5029 17.7805 23.5181 17.5127 22.9983C17.1001 22.1974 16.8666 21.968 16.0388 21.5508C12.776 19.9065 9.12504 16.2343 7.18784 12.6483C6.0718 10.5823 5.26242 7.57679 4.99563 4.50773L4.94501 3.92445H18.5181H32.0912L32.048 4.40629ZM8.14513 7.17884C7.54572 7.2747 7.36486 7.41529 7.36486 7.78575C7.36486 8.23696 8.03456 10.0324 8.78136 11.5831C10.615 15.3911 13.9091 19.1403 16.8451 20.761C17.6524 21.2066 18.0966 21.6786 18.3386 22.348C18.4725 22.7183 18.6247 22.8033 18.6247 22.5078C18.6247 22.2792 19.1238 21.493 19.4472 21.2123C19.5806 21.0966 20.0494 20.7999 20.4889 20.553C22.5012 19.4227 25.054 16.7871 26.9664 13.8655C27.6735 12.7853 28.9025 10.4071 29.032 9.86841C29.1017 9.57849 29.0972 9.57484 28.7584 9.6426C28.0017 9.79395 26.301 9.82621 24.7667 9.71828C22.5625 9.56318 20.5405 9.23867 15.5308 8.23584C10.3591 7.20055 9.11936 7.02313 8.14513 7.17884Z" fill="#fd7e14"/>
</svg>
