<svg width="20" height="18" viewBox="0 0 20 18" fill="none" xmlns="http://www.w3.org/2000/svg">
    <g clip-path="url(#v7hkzrggwa)">
        <path d="M18.732 10.162v6.336c0 .827-.704 1.5-1.57 1.5H3.356c-.866 0-1.57-.673-1.57-1.5v-6.336c0-.166.141-.3.314-.3.174 0 .314.134.314.3v6.336c0 .496.423.9.942.9h3.412v-5.061c0-.827.704-1.5 1.57-1.5h3.844c.865 0 1.569.673 1.569 1.5v3.861c0 .166-.14.3-.314.3a.307.307 0 0 1-.314-.3v-3.861c0-.496-.422-.9-.941-.9H8.336c-.519 0-.941.404-.941.9v5.06h2.55v-4.723c0-.166.14-.3.314-.3.173 0 .313.134.313.3v4.724h6.59c.52 0 .942-.404.942-.9v-6.336c0-.166.14-.3.314-.3.173 0 .314.134.314.3zM2.884 4.801c0 .165.14.3.314.3 17.074 0 16.227.029 16.352-.063a.296.296 0 0 0 .12-.196c.017-.12.13.176-2.063-4.66a.315.315 0 0 0-.288-.18H3.198a.315.315 0 0 0-.288.18l-2.04 4.5c-.036.08-.026-.047-.026 1.98.002 1.364 1.164 2.474 2.59 2.474A2.61 2.61 0 0 0 5.707 7.84c.981 1.724 3.567 1.726 4.55.001.983 1.724 3.568 1.724 4.55 0a2.61 2.61 0 0 0 2.276 1.295c1.428 0 2.59-1.11 2.59-2.475 0-.166-.141-.3-.315-.3a.307.307 0 0 0-.314.3c0 1.034-.88 1.875-1.96 1.875-1.082 0-1.962-.841-1.962-1.875 0-.166-.14-.3-.314-.3a.307.307 0 0 0-.314.3c0 1.034-.88 1.875-1.961 1.875-1.082 0-1.962-.841-1.962-1.875 0-.166-.14-.3-.313-.3a.307.307 0 0 0-.314.3c0 1.034-.88 1.875-1.962 1.875-1.057 0-1.96-.813-1.96-1.89 0-.166-.141-.3-.315-.3a.307.307 0 0 0-.314.3c0 1.068-.898 1.89-1.96 1.89-1.08 0-1.96-.841-1.962-1.875V4.863L3.404.602h13.71L18.88 4.5H3.198a.307.307 0 0 0-.314.3z" fill="#F2F2F2" stroke="#F2F2F2" stroke-width=".6"/>
    </g>
    <defs>
        <clipPath id="v7hkzrggwa">
            <path fill="#fff" transform="translate(.843)" d="M0 0h18.833v18H0z"/>
        </clipPath>
    </defs>
</svg>
