<svg xmlns="http://www.w3.org/2000/svg" width="24" height="24" fill="none" viewBox="0 0 24 24">
    <g clip-path="url(#prefix__clip0)">
        <path fill="#000" d="M22.797 13.55v8.448c0 1.102-.898 2-2 2H3.2c-1.103 0-2-.898-2-2V13.55c0-.221.18-.4.4-.4.221 0 .4.179.4.4v8.448c0 .661.538 1.2 1.2 1.2H7.55v-6.749c0-1.103.897-2 2-2h4.898c1.103 0 2 .898 2 2v5.149c0 .22-.18.4-.4.4-.22 0-.4-.18-.4-.4v-5.149c0-.662-.538-1.2-1.2-1.2H9.55c-.662 0-1.2.538-1.2 1.2v6.748h3.249V16.9c0-.22.18-.4.4-.4.22 0 .4.18.4.4v6.298h8.398c.661 0 1.2-.538 1.2-1.2V13.55c0-.221.179-.4.4-.4.22 0 .4.179.4.4zM2.6 6.4c0 .221.18.4.4.4 21.758 0 20.68.04 20.839-.083.083-.064.137-.156.152-.261.022-.161.166.234-2.628-6.213-.064-.147-.208-.241-.367-.241H3c-.16 0-.304.094-.367.24l-2.6 6c-.045.105-.032-.063-.032 2.64C.005 10.7 1.485 12.18 3.3 12.18c1.249 0 2.338-.7 2.898-1.727 1.251 2.298 4.547 2.301 5.8.001 1.252 2.298 4.546 2.299 5.799 0 .56 1.027 1.65 1.726 2.899 1.726 1.82 0 3.3-1.48 3.3-3.3 0-.22-.18-.4-.4-.4-.222 0-.4.18-.4.4 0 1.379-1.122 2.5-2.5 2.5s-2.5-1.121-2.5-2.5c0-.22-.179-.4-.4-.4-.22 0-.4.18-.4.4 0 1.379-1.12 2.5-2.499 2.5-1.378 0-2.5-1.121-2.5-2.5 0-.22-.178-.4-.4-.4-.22 0-.399.18-.399.4 0 1.379-1.121 2.5-2.5 2.5-1.347 0-2.499-1.083-2.499-2.52 0-.22-.179-.4-.4-.4-.22 0-.4.18-.4.4 0 1.425-1.144 2.52-2.5 2.52-1.375 0-2.496-1.121-2.499-2.5V6.485L3.264.803h17.47L22.987 6H3.001c-.22 0-.4.18-.4.4z"/>
    </g>
    <defs>
        <clipPath id="prefix__clip0">
            <path fill="#fff" d="M0 0H24V24H0z"/>
        </clipPath>
    </defs>
</svg>
