<svg xmlns="http://www.w3.org/2000/svg" width="33" height="32" fill="none" viewBox="0 0 33 32">
    <path fill="#F2994A" fill-rule="evenodd" d="M24.447 23.695h.573c1.839-.012 3.608-.726 4.967-2.007 1.36-1.28 2.214-3.035 2.399-4.928.185-1.893-.313-3.79-1.397-5.326-1.085-1.536-2.68-2.603-4.478-2.995-.495-2.389-1.767-4.53-3.602-6.065C21.073.838 18.784 0 16.424 0c-2.36 0-4.65.838-6.485 2.374C8.103 3.909 6.832 6.05 6.337 8.439c-1.799.392-3.393 1.46-4.478 2.995C.774 12.97.277 14.867.462 16.76c.184 1.893 1.039 3.648 2.399 4.928 1.36 1.28 3.128 1.995 4.966 2.008H8.4v-2.373h-.573c-1.368.056-2.702-.452-3.708-1.413-1.006-.961-1.601-2.296-1.656-3.712-.055-1.416.436-2.797 1.365-3.838.928-1.041 2.218-1.658 3.586-1.714H8.4l.023-.973c.254-1.998 1.202-3.831 2.665-5.16 1.464-1.328 3.344-2.06 5.29-2.06 1.946 0 3.826.732 5.29 2.06 1.463 1.329 2.41 3.162 2.665 5.16l.114.973h.986c1.368.056 2.658.673 3.587 1.714.929 1.041 1.42 2.422 1.365 3.838-.055 1.416-.65 2.751-1.657 3.712-1.006.961-2.34 1.47-3.708 1.413h-.573v2.372zM12.31 20.623l-1.616-1.673 5.73-5.932 5.732 5.932-1.616 1.673-2.97-3.061V32h-2.292V17.562l-2.968 3.06z" clip-rule="evenodd"/>
</svg>
